<svg width="16" height="16" viewBox="0 0 16 16" fill="none" xmlns="http://www.w3.org/2000/svg">
<path d="M11.7084 0.6698L9.85689 0.666748C7.77678 0.666748 6.43253 2.08347 6.43253 4.27623V5.94045H4.57092C4.41005 5.94045 4.27979 6.07442 4.27979 6.23966V8.65092C4.27979 8.81617 4.4102 8.94998 4.57092 8.94998H6.43253V15.0344C6.43253 15.1996 6.56279 15.3334 6.72366 15.3334H9.15253C9.31339 15.3334 9.44366 15.1994 9.44366 15.0344V8.94998H11.6203C11.7812 8.94998 11.9114 8.81617 11.9114 8.65092L11.9123 6.23966C11.9123 6.16032 11.8816 6.08433 11.8271 6.02818C11.7726 5.97203 11.6983 5.94045 11.6211 5.94045H9.44366V4.52967C9.44366 3.8516 9.60096 3.50737 10.4608 3.50737L11.7081 3.50691C11.8688 3.50691 11.9991 3.37295 11.9991 3.20785V0.968861C11.9991 0.80392 11.869 0.670105 11.7084 0.6698Z" fill="white"/>
</svg>
