<svg width="16" height="16" viewBox="0 0 16 16" fill="none" xmlns="http://www.w3.org/2000/svg">
<path d="M14.6538 5.25329C14.6225 4.54484 14.508 4.05778 14.3439 3.63574C14.1746 3.18776 13.9141 2.78668 13.5728 2.45326C13.2394 2.11465 12.8357 1.85154 12.3929 1.68488C11.9684 1.52077 11.4839 1.4062 10.7755 1.37497C10.0617 1.34109 9.83514 1.33325 8.02489 1.33325C6.21465 1.33325 5.98806 1.34109 5.27696 1.37232C4.56851 1.40356 4.08146 1.51822 3.65952 1.68224C3.21144 1.85154 2.81036 2.11201 2.47694 2.45326C2.13834 2.78668 1.87532 3.19041 1.70856 3.6332C1.54445 4.05778 1.42988 4.54219 1.39865 5.25064C1.36477 5.96438 1.35693 6.19097 1.35693 8.00122C1.35693 9.81147 1.36477 10.0381 1.396 10.7492C1.42724 11.4576 1.54191 11.9447 1.70602 12.3667C1.87532 12.8147 2.13834 13.2158 2.47694 13.5492C2.81036 13.8878 3.21408 14.1509 3.65688 14.3176C4.08146 14.4817 4.56587 14.5962 5.27442 14.6275C5.98541 14.6588 6.2121 14.6665 8.02235 14.6665C9.8326 14.6665 10.0592 14.6588 10.7703 14.6275C11.4787 14.5962 11.9658 14.4817 12.3877 14.3176C13.2838 13.9711 13.9922 13.2627 14.3387 12.3667C14.5027 11.9421 14.6174 11.4576 14.6486 10.7492C14.6798 10.0381 14.6877 9.81147 14.6877 8.00122C14.6877 6.19097 14.685 5.96438 14.6538 5.25329ZM13.4531 10.6971C13.4244 11.3482 13.315 11.6999 13.2239 11.9343C12.9998 12.5151 12.5388 12.9761 11.9579 13.2002C11.7235 13.2914 11.3694 13.4007 10.7207 13.4293C10.0175 13.4607 9.80655 13.4684 8.02754 13.4684C6.24853 13.4684 6.03496 13.4607 5.33425 13.4293C4.68308 13.4007 4.33145 13.2914 4.09703 13.2002C3.80797 13.0934 3.54486 12.9241 3.3313 12.7027C3.1099 12.4865 2.94059 12.226 2.83376 11.9369C2.7426 11.7025 2.63322 11.3482 2.60463 10.6997C2.57329 9.99644 2.56556 9.78542 2.56556 8.00641C2.56556 6.2274 2.57329 6.01383 2.60463 5.31322C2.63322 4.66205 2.7426 4.31042 2.83376 4.076C2.94059 3.78684 3.1099 3.52382 3.33394 3.31016C3.55005 3.08876 3.81051 2.91946 4.09967 2.81273C4.33409 2.72156 4.68837 2.61219 5.33689 2.5835C6.04015 2.55226 6.25117 2.54443 8.03008 2.54443C9.81174 2.54443 10.0227 2.55226 10.7234 2.5835C11.3745 2.61219 11.7262 2.72156 11.9606 2.81273C12.2497 2.91946 12.5128 3.08876 12.7263 3.31016C12.9477 3.52637 13.117 3.78684 13.2239 4.076C13.315 4.31042 13.4244 4.66459 13.4531 5.31322C13.4843 6.01648 13.4922 6.2274 13.4922 8.00641C13.4922 9.78542 13.4843 9.9938 13.4531 10.6971Z" fill="white"/>
<path d="M8.02489 4.57607C6.13396 4.57607 4.59974 6.11019 4.59974 8.00123C4.59974 9.89226 6.13396 11.4264 8.02489 11.4264C9.91593 11.4264 11.45 9.89226 11.45 8.00123C11.45 6.11019 9.91593 4.57607 8.02489 4.57607ZM8.02489 10.223C6.79815 10.223 5.80308 9.22807 5.80308 8.00123C5.80308 6.77438 6.79815 5.77941 8.02489 5.77941C9.25173 5.77941 10.2467 6.77438 10.2467 8.00123C10.2467 9.22807 9.25173 10.223 8.02489 10.223Z" fill="white"/>
<path d="M12.3852 4.44065C12.3852 4.88223 12.0272 5.24027 11.5855 5.24027C11.1439 5.24027 10.7859 4.88223 10.7859 4.44065C10.7859 3.99898 11.1439 3.64103 11.5855 3.64103C12.0272 3.64103 12.3852 3.99898 12.3852 4.44065Z" fill="white"/>
</svg>
